<svg width="517" height="290" viewBox="0 0 517 290" fill="none" xmlns="http://www.w3.org/2000/svg">
<g clip-path="url(#clip0_1629_1220)">
<rect width="516" height="290" transform="translate(0.5)" fill="#F5E6FF"/>
<path d="M87 290.499L264.421 189.656L285.02 201.741V206.567L108.5 309.499L87.0035 296.999L87 290.499Z" fill="#151515" stroke="#151515" stroke-width="2" stroke-linejoin="round"/>
<path d="M87 290.499L264.421 189.656L285.02 201.741V206.567L108.5 309.499L87.0035 296.999L87 290.499Z" fill="#151515" stroke="#151515" stroke-width="2" stroke-linejoin="round"/>
<path d="M198.988 156.47C198.988 177.106 206.2 191.633 217.872 198.463L239.803 211.329C236.121 209.164 232.886 206.231 230.182 202.581C224.338 194.693 220.979 183.455 220.979 169.371C220.979 127.916 250.082 77.5074 285.983 56.78L263.993 43.8789C228.092 64.6064 198.988 115.015 198.988 156.47Z" fill="#B382F2"/>
<path d="M239.803 211.329C236.121 209.164 232.886 206.231 230.182 202.581C224.338 194.693 220.979 183.455 220.979 169.371C220.979 127.916 250.082 77.5074 285.983 56.78L263.993 43.8789C228.092 64.6064 198.988 115.015 198.988 156.47C198.988 177.106 206.2 191.633 217.872 198.463L239.803 211.329ZM239.803 211.329L239.863 211.364" stroke="#151515" stroke-width="2" stroke-linecap="round" stroke-linejoin="round"/>
<path d="M263.993 43.8781L285.984 56.7792C298.368 49.629 309.944 46.9449 319.795 48.1982C325.639 56.0862 328.998 67.3247 328.998 81.4085L350.988 94.3096C350.988 73.3993 343.584 58.7613 331.637 52.0481L309.646 39.1471C297.908 32.5513 281.786 33.6058 263.993 43.8781Z" fill="#151515"/>
<path d="M331.637 52.0481C343.584 58.7613 350.988 73.3993 350.988 94.3096L328.998 81.4085C328.998 67.3247 325.639 56.0862 319.795 48.1982M331.637 52.0481L309.646 39.1471C297.908 32.5513 281.786 33.6058 263.993 43.8781L285.984 56.7792C298.368 49.629 309.944 46.9449 319.795 48.1982M331.637 52.0481C328.069 50.0434 324.096 48.7454 319.795 48.1982" stroke="#151515" stroke-width="2" stroke-linejoin="round"/>
<path d="M239.761 180.154C235.081 182.949 227.071 187.733 223.488 180.568L235.988 212.068L548.818 25.8166V19.8166L527 8L239.761 180.154Z" fill="#151515" stroke="#151515" stroke-width="2" stroke-linejoin="round"/>
<path d="M223.488 180.568C227.108 187.807 235.248 182.848 239.905 180.068L529.001 7L550.818 18.8166L246.799 200.14L235.988 206.068C234.366 203.213 223.488 180.568 223.488 180.568Z" fill="#8E44EC" stroke="#151515" stroke-width="2" stroke-linejoin="round"/>
<path d="M230.183 202.58C224.34 194.692 220.98 183.453 220.98 169.369L224.399 166.586C224.399 179.778 227.545 190.306 233.019 197.694C235.552 201.113 238.583 203.86 242.031 205.888L239.804 211.328C236.123 209.162 232.887 206.23 230.183 202.58Z" fill="#151515" stroke="#151515" stroke-width="1.50978" stroke-linejoin="round"/>
<path d="M220.98 169.372C220.98 127.917 250.083 77.5087 285.984 56.7812L285.288 61.1236C251.66 80.5392 224.398 127.758 224.398 166.589L220.98 169.372Z" fill="#151515" stroke="#151515" stroke-width="1.50978" stroke-linejoin="round"/>
<path d="M332.025 158.244C320.256 178.675 303.976 195.681 285.986 206.067C267.957 216.477 251.639 218.253 239.863 211.363L239.803 211.327C236.122 209.162 232.886 206.23 230.182 202.58L233.018 197.694C235.551 201.113 238.582 203.86 242.03 205.888L242.086 205.921C253.117 212.376 268.399 211.492 285.288 201.741C302.139 192.012 317.391 175.302 328.415 156.165C339.392 137.11 346.178 115.649 346.178 96.2756L350.988 94.3086C350.988 114.991 343.744 137.902 332.025 158.244Z" fill="#151515" stroke="#151515" stroke-width="1.50978" stroke-linejoin="round"/>
<path d="M285.288 61.1222L285.984 56.7799C320.624 36.023 350.988 54.0124 350.988 94.3103L346.178 96.2773C346.178 58.128 316.725 42.9721 285.288 61.1222Z" fill="#151515" stroke="#151515" stroke-width="1.50978" stroke-linejoin="round"/>
<path d="M87 290.304L108.76 302.851L285.016 201.744C301.867 192.015 317.119 175.306 328.144 156.168C339.121 137.114 345.907 115.652 345.907 96.2788C345.907 76.692 338.97 62.9804 327.78 56.6921C324.438 54.8143 320.717 53.5986 316.687 53.0859C322.161 60.4748 325.308 71.0019 325.308 84.1943C325.308 123.026 298.046 170.244 264.417 189.66L87 290.304Z" fill="#8E44EC" stroke="#151515" stroke-width="2" stroke-linejoin="round"/>
<path d="M285.016 201.741L108.76 302.848L87 290.301L264.417 189.656" stroke="#151515" stroke-width="2" stroke-linejoin="round"/>
<path d="M87.0035 296.999V290.303L108.76 302.848L108.5 309.499L87.0035 296.999Z" fill="#B382F2"/>
<path d="M87.0035 290.303V296.999L108.5 309.499L108.76 302.848L87 290.301" stroke="#151515" stroke-width="2" stroke-linecap="round" stroke-linejoin="round"/>
<path opacity="0.5" d="M249.217 89.9491C243.44 93.2501 234.074 93.2501 228.297 89.9491C222.521 86.6482 222.521 81.2962 228.297 77.9953C234.074 74.6943 243.44 74.6943 249.217 77.9953C254.993 81.2962 254.993 86.6482 249.217 89.9491Z" fill="#151515"/>
<circle cx="238.757" cy="43.7572" r="21.7572" fill="#59B5F8" stroke="#151515" stroke-width="2"/>
<mask id="path-19-inside-1_1629_1220" fill="white">
<path fill-rule="evenodd" clip-rule="evenodd" d="M238.757 66.5143C251.326 66.5143 261.514 56.3256 261.514 43.7572C261.514 43.0886 261.485 42.4268 261.429 41.7729C260.424 51.4152 250.657 58.9818 238.757 58.9818C226.857 58.9818 217.091 51.4153 216.085 41.7732C216.029 42.427 216 43.0887 216 43.7572C216 56.3256 226.189 66.5143 238.757 66.5143ZM230.321 22.615C232.93 21.7519 235.776 21.2771 238.757 21.2771C241.738 21.2771 244.585 21.7519 247.194 22.6151C244.585 21.5731 241.738 21 238.757 21C235.776 21 232.93 21.5731 230.321 22.615Z"/>
</mask>
<path fill-rule="evenodd" clip-rule="evenodd" d="M238.757 66.5143C251.326 66.5143 261.514 56.3256 261.514 43.7572C261.514 43.0886 261.485 42.4268 261.429 41.7729C260.424 51.4152 250.657 58.9818 238.757 58.9818C226.857 58.9818 217.091 51.4153 216.085 41.7732C216.029 42.427 216 43.0887 216 43.7572C216 56.3256 226.189 66.5143 238.757 66.5143ZM230.321 22.615C232.93 21.7519 235.776 21.2771 238.757 21.2771C241.738 21.2771 244.585 21.7519 247.194 22.6151C244.585 21.5731 241.738 21 238.757 21C235.776 21 232.93 21.5731 230.321 22.615Z" fill="#151515"/>
<path d="M261.429 41.7729L263.422 41.6008L259.44 41.5656L261.429 41.7729ZM216.085 41.7732L218.074 41.5658L214.093 41.6011L216.085 41.7732ZM230.321 22.615L229.579 20.7577L230.949 24.5138L230.321 22.615ZM247.194 22.6151L246.566 24.5139L247.936 20.7578L247.194 22.6151ZM259.514 43.7572C259.514 55.221 250.221 64.5143 238.757 64.5143V68.5143C252.43 68.5143 263.514 57.4302 263.514 43.7572H259.514ZM259.436 41.9451C259.488 42.5418 259.514 43.1462 259.514 43.7572H263.514C263.514 43.0311 263.483 42.3119 263.422 41.6008L259.436 41.9451ZM259.44 41.5656C258.57 49.9125 249.937 56.9818 238.757 56.9818V60.9818C251.377 60.9818 262.278 52.9179 263.418 41.9803L259.44 41.5656ZM238.757 56.9818C227.577 56.9818 218.945 49.9126 218.074 41.5658L214.096 41.9806C215.236 52.9181 226.137 60.9818 238.757 60.9818V56.9818ZM218 43.7572C218 43.1462 218.026 42.5419 218.078 41.9453L214.093 41.6011C214.031 42.3121 214 43.0312 214 43.7572H218ZM238.757 64.5143C227.293 64.5143 218 55.221 218 43.7572H214C214 57.4302 225.084 68.5143 238.757 68.5143V64.5143ZM230.949 24.5138C233.354 23.7181 235.989 23.2771 238.757 23.2771V19.2771C235.564 19.2771 232.505 19.7856 229.692 20.7162L230.949 24.5138ZM238.757 23.2771C241.526 23.2771 244.161 23.7181 246.566 24.5139L247.822 20.7164C245.009 19.7857 241.95 19.2771 238.757 19.2771V23.2771ZM238.757 23C241.48 23 244.075 23.5231 246.452 24.4725L247.936 20.7578C245.095 19.6231 241.996 19 238.757 19V23ZM231.063 24.4724C233.439 23.5231 236.035 23 238.757 23V19C235.518 19 232.42 19.623 229.579 20.7577L231.063 24.4724Z" fill="#151515" mask="url(#path-19-inside-1_1629_1220)"/>
<circle cx="47" cy="-3" r="102" stroke="#151515" stroke-width="2" stroke-linecap="round" stroke-linejoin="round" stroke-dasharray="6 6"/>
<path fill-rule="evenodd" clip-rule="evenodd" d="M46.5 67C85.4361 67 117 35.4361 117 -3.5C117 -42.4361 85.4361 -74 46.5 -74C7.56392 -74 -24 -42.4361 -24 -3.5C-24 35.4361 7.56392 67 46.5 67Z" fill="#8E44EC" stroke="#151515" stroke-width="2" stroke-linejoin="round"/>
<circle cx="413" cy="321" r="102" stroke="#151515" stroke-width="2" stroke-linecap="round" stroke-linejoin="round" stroke-dasharray="6 6"/>
<path fill-rule="evenodd" clip-rule="evenodd" d="M413 411C462.706 411 503 370.706 503 321C503 271.294 462.706 231 413 231C363.294 231 323 271.294 323 321C323 370.706 363.294 411 413 411ZM413 385C448.346 385 477 356.346 477 321C477 285.654 448.346 257 413 257C377.654 257 349 285.654 349 321C349 356.346 377.654 385 413 385Z" fill="#59B5F8" stroke="#151515" stroke-width="2" stroke-linejoin="round"/>
<path d="M479.4 141.122C462.471 136.843 438.897 143.54 426.746 156.08C420.663 162.358 418.596 168.911 420.173 174.426L420.172 174.426L414.281 153.688C413.128 149.631 415.63 144.452 421.718 138.209C433.878 125.74 457.435 119.047 474.334 123.261C482.796 125.371 487.592 128.476 488.745 132.533L494.59 153.108C492.976 147.662 487.792 143.243 479.4 141.122Z" fill="#F7A1B0" stroke="#151515" stroke-width="2" stroke-linejoin="round"/>
<path d="M464.129 139.987C450.245 141.016 435.514 147.025 426.739 156.08C420.655 162.359 418.588 168.912 420.166 174.428L420.164 174.428L414.273 153.69C413.12 149.633 415.622 144.454 421.711 138.211C430.488 129.21 445.203 123.22 459.067 122.168L464.129 139.987Z" fill="#151515" stroke="#151515" stroke-width="2" stroke-linejoin="round"/>
<path d="M426.622 155.65C438.73 142.957 462.304 136.26 479.276 140.691C496.249 145.123 500.193 159.006 488.085 171.699C475.978 184.392 452.404 191.089 435.431 186.657C418.459 182.226 414.515 168.343 426.622 155.65Z" fill="#F97289" stroke="#151515" stroke-width="2" stroke-linejoin="round"/>
<path d="M118.699 195.548C96.8632 203.772 64.5556 198.421 46.5378 183.595C37.6044 176.244 33.8612 167.945 35.019 160.442L35.0172 160.441L33.1268 171.854C32.2058 177.414 36.3055 183.915 45.3277 191.29C63.3463 206.02 95.6303 211.368 117.436 203.235C128.355 199.162 134.257 194.318 135.178 188.758L137.068 177.346C135.745 184.821 129.525 191.47 118.699 195.548Z" fill="#87DAFD" stroke="#151515" stroke-width="2" stroke-linejoin="round"/>
<path d="M98.6078 199.347C80.0175 200.067 59.5541 194.301 46.5427 183.595C37.6094 176.244 33.8661 167.945 35.0239 160.442L35.0211 160.441L33.1307 171.854C32.2097 177.414 36.3094 183.915 45.3316 191.29C58.338 201.923 78.7774 207.667 97.3434 206.981L98.6078 199.347Z" fill="#151515" stroke="#151515" stroke-width="2" stroke-linejoin="round"/>
<path fill-rule="evenodd" clip-rule="evenodd" d="M118.695 195.547C96.8594 203.771 64.5518 198.42 46.5341 183.594C28.5163 168.769 31.6115 150.083 53.4472 141.859C75.2829 133.635 107.591 138.987 125.608 153.812C143.626 168.638 140.531 187.323 118.695 195.547ZM107.963 186.853C93.2859 192.443 71.5868 188.849 59.4964 178.825C47.406 168.801 49.5027 156.143 64.1795 150.553C78.8563 144.962 100.555 148.557 112.646 158.581C124.736 168.605 122.64 181.263 107.963 186.853Z" fill="#59B5F8" stroke="#151515" stroke-width="2" stroke-linejoin="round"/>
<path d="M51.7924 166.934C53.6717 163.357 57.4082 160.263 62.917 158.165C77.5938 152.575 99.293 156.169 111.383 166.193C115.921 169.956 118.461 174.089 119.086 178.081C122.214 172.128 120.197 164.839 112.645 158.578C100.554 148.554 78.8553 144.959 64.1785 150.549C55.0105 154.041 50.7513 160.291 51.7924 166.934Z" fill="#151515" stroke="#151515" stroke-width="2" stroke-linejoin="round"/>
<path d="M51.7944 166.938C53.6736 163.361 57.4101 160.267 62.919 158.169C75.2087 153.488 92.4221 155.247 104.795 161.828L106.056 154.213C93.6836 147.631 76.4702 145.872 64.1805 150.553C55.0125 154.045 50.7532 160.295 51.7944 166.938Z" fill="#87DAFD" stroke="#151515" stroke-width="2" stroke-linejoin="round"/>
</g>
<defs>
<clipPath id="clip0_1629_1220">
<rect width="516" height="290" fill="white" transform="translate(0.5)"/>
</clipPath>
</defs>
</svg>
